<svg width="746" height="104" viewBox="0 0 746 104" fill="none" xmlns="http://www.w3.org/2000/svg">
<path d="M16.9676 89.2131C17.0572 89.3035 17.1578 89.3938 17.2473 89.4843L20.7816 84.4121C23.7121 78.5944 24.8529 73.2849 24.8864 68.7664C24.8417 66.3489 24.5061 63.954 23.9022 61.6269C23.4771 60.2262 23.164 58.7801 22.9626 57.3229C22.9626 57.3116 22.9626 57.2891 22.9626 57.2664C22.8284 56.2949 22.7389 55.3008 22.6943 54.3068C22.0791 38.2882 34.4046 24.5629 50.2199 23.6591L50.108 23.5575C53.8773 23.3202 59.3689 24.1562 63.9771 22.9362C68.753 21.5693 73.0926 18.9146 76.5375 15.2545C76.7052 15.0737 76.8955 14.9156 77.0967 14.78L80.3403 10.1371C66.7621 0.62546 48.8441 -1.98404 32.4026 4.80519C6.58822 15.4466 -5.78209 45.2243 4.76511 71.2968C7.40471 77.8149 11.2187 83.4858 15.8716 88.1513C16.2294 88.5128 16.5874 88.8629 16.9565 89.2131H16.9676Z" fill="black" stroke="black" stroke-width="0.300037" stroke-miterlimit="10"/>
<path d="M82.7107 18.9597C82.6324 19.1969 82.5429 19.4454 82.4087 19.6713C79.3552 25.4438 78.0579 34.1648 78.3374 37.6103C78.7961 43.3376 80.5297 47.0542 79.9929 51.4373C80.3955 67.3316 68.0923 80.8309 52.4 81.7008C52.4 81.7008 52.3777 81.7008 52.3665 81.7008C48.9104 81.9268 48.5078 81.5879 45.3426 81.7346C38.8106 82.0283 31.8426 84.7847 27.0107 89.936L23.7783 94.5788C24.7067 95.2002 25.6462 95.7876 26.5969 96.3751C27.0331 96.6236 27.4693 96.8608 27.9056 97.098C40.6673 103.899 56.2029 105.152 70.5977 99.2105C96.412 88.5578 108.782 58.78 98.2351 32.7075C95.3494 25.5795 91.0433 19.4566 85.7865 14.554L82.7107 18.9597Z" fill="black" stroke="black" stroke-width="0.300037" stroke-miterlimit="10"/>
<path d="M344.121 57.0488L358.373 43.3845H317.148V57.0488H344.121ZM368 1H291V101H368V86.1176H307.798V15.8828H368V1Z" fill="#050E16"/>
<path d="M245.202 82.2393L180.885 1H166V101H180.885V19.8483L245.202 101H260V1H245.202V82.2393Z" fill="#050E16"/>
<path d="M531 1L551 1V101H531V1Z" fill="#050E16"/>
<path d="M638.943 28.0523C638.435 23.5416 636.338 20.0475 632.653 17.5698C628.969 15.0604 624.331 13.8057 618.74 13.8057C614.738 13.8057 611.276 14.441 608.353 15.7116C605.431 16.9504 603.16 18.6657 601.54 20.8575C599.951 23.0175 599.157 25.4793 599.157 28.2429C599.157 30.5617 599.697 32.5629 600.777 34.2464C601.889 35.93 603.334 37.3435 605.113 38.4871C606.924 39.5988 608.861 40.5359 610.926 41.2983C612.991 42.0289 614.976 42.6324 616.882 43.1089L626.412 45.5865C629.525 46.3489 632.717 47.3813 635.989 48.6836C639.261 49.986 642.294 51.7013 645.089 53.8296C647.885 55.9578 650.14 58.5943 651.855 61.7391C653.603 64.8838 654.476 68.6479 654.476 73.0315C654.476 78.5586 653.047 83.4663 650.188 87.7546C647.361 92.0429 643.247 95.4258 637.847 97.9035C632.479 100.381 625.983 101.62 618.359 101.62C611.053 101.62 604.732 100.461 599.396 98.1417C594.059 95.8229 589.882 92.5352 586.864 88.2787C583.847 83.9904 582.179 78.908 581.861 73.0315H596.632C596.918 76.5574 598.061 79.4957 600.063 81.8463C602.096 84.1651 604.684 85.8963 607.829 87.0399C611.006 88.1517 614.484 88.7075 618.264 88.7075C622.425 88.7075 626.126 88.0564 629.366 86.754C632.638 85.4199 635.211 83.5775 637.085 81.2269C638.959 78.8445 639.896 76.0651 639.896 72.8886C639.896 69.998 639.07 67.6315 637.418 65.7891C635.798 63.9467 633.591 62.422 630.795 61.2149C628.032 60.0079 624.903 58.9437 621.409 58.0225L609.878 54.8778C602.064 52.7496 595.87 49.6207 591.295 45.4913C586.753 41.3618 584.482 35.8982 584.482 29.1005C584.482 23.4781 586.007 18.5704 589.056 14.3774C592.105 10.1844 596.235 6.92853 601.444 4.60969C606.654 2.25907 612.53 1.08377 619.074 1.08377C625.681 1.08377 631.51 2.24319 636.561 4.56204C641.643 6.88089 645.645 10.0733 648.568 14.1392C651.49 18.1733 653.015 22.811 653.142 28.0523H638.943Z" fill="#050E16"/>
<path d="M426.726 1L449 30.47L437.379 46.5446L403 1H426.726Z" fill="black"/>
<path d="M476.446 1L401 101H424.163L500 1H476.446Z" fill="black"/>
<path d="M478.727 101L454 68.2079L465.636 52.4851L502 101H478.727Z" fill="black"/>
</svg>
