<svg width="500" height="500" viewBox="0 0 500 500" fill="none" xmlns="http://www.w3.org/2000/svg">
<circle cx="250" cy="250" r="250" fill="black"/>
<path d="M176.832 328.76C177.022 328.952 177.235 329.143 177.425 329.334L184.913 318.596C191.122 306.279 193.54 295.038 193.61 285.472C193.516 280.353 192.805 275.283 191.525 270.356C190.624 267.391 189.961 264.329 189.534 261.244C189.534 261.22 189.534 261.172 189.534 261.124C189.25 259.068 189.06 256.963 188.966 254.858C187.662 220.945 213.778 191.886 247.287 189.973L247.05 189.758C255.036 189.255 266.672 191.025 276.436 188.442C286.555 185.548 295.75 179.928 303.049 172.179C303.404 171.796 303.807 171.461 304.234 171.174L311.106 161.345C282.337 141.207 244.372 135.682 209.536 150.056C154.84 172.586 128.63 235.629 150.978 290.829C156.57 304.629 164.651 316.635 174.51 326.512C175.268 327.278 176.027 328.019 176.809 328.76H176.832Z" fill="url(#paint0_linear_383_785)"/>
<path d="M316.129 180.024C315.963 180.526 315.773 181.052 315.489 181.531C309.019 193.752 306.271 212.215 306.863 219.51C307.835 231.636 311.508 239.504 310.37 248.784C311.224 282.434 285.156 311.014 251.907 312.856C251.907 312.856 251.859 312.856 251.836 312.856C244.513 313.335 243.66 312.617 236.953 312.928C223.114 313.55 208.35 319.385 198.112 330.291L191.263 340.121C193.23 341.436 195.221 342.68 197.235 343.924C198.159 344.45 199.084 344.952 200.008 345.454C227.048 359.852 259.964 362.507 290.464 349.927C345.159 327.374 371.37 264.329 349.022 209.13C342.908 194.039 333.784 181.076 322.646 170.696L316.129 180.024Z" fill="url(#paint1_linear_383_785)"/>
<defs>
<linearGradient id="paint0_linear_383_785" x1="227.053" y1="142" x2="227.053" y2="329.334" gradientUnits="userSpaceOnUse">
<stop stop-color="white"/>
<stop offset="1" stop-color="white" stop-opacity="0.45"/>
</linearGradient>
<linearGradient id="paint1_linear_383_785" x1="274.131" y1="170.696" x2="274.131" y2="357.983" gradientUnits="userSpaceOnUse">
<stop stop-color="white" stop-opacity="0.45"/>
<stop offset="1" stop-color="white"/>
</linearGradient>
</defs>
</svg>
