<svg width="500" height="500" viewBox="0 0 500 500" fill="none" xmlns="http://www.w3.org/2000/svg">
<circle cx="250" cy="250" r="250" fill="black"/>
<path d="M169.994 336.215C170.201 336.424 170.435 336.633 170.642 336.842L178.83 325.1C185.62 311.632 188.263 299.341 188.34 288.88C188.237 283.284 187.459 277.739 186.06 272.352C185.075 269.11 184.35 265.762 183.883 262.388C183.883 262.362 183.883 262.31 183.883 262.258C183.573 260.008 183.365 257.707 183.262 255.406C181.836 218.323 210.392 186.548 247.033 184.456L246.774 184.221C255.507 183.672 268.23 185.607 278.906 182.783C289.971 179.618 300.025 173.473 308.006 164.999C308.395 164.581 308.836 164.215 309.302 163.901L316.817 153.153C285.359 131.133 243.846 125.092 205.754 140.809C145.947 165.444 117.287 234.38 141.723 294.738C147.839 309.828 156.675 322.956 167.455 333.757C168.284 334.593 169.113 335.404 169.968 336.215H169.994Z" fill="url(#paint0_linear_383_785)"/>
<path d="M322.309 173.578C322.128 174.127 321.921 174.702 321.61 175.225C314.535 188.589 311.53 208.778 312.177 216.754C313.24 230.013 317.256 238.617 316.013 248.764C316.946 285.559 288.441 316.81 252.085 318.824C252.085 318.824 252.033 318.824 252.008 318.824C244 319.347 243.068 318.563 235.734 318.903C220.601 319.583 204.457 325.964 193.263 337.889L185.774 348.637C187.925 350.076 190.101 351.435 192.304 352.795C193.315 353.371 194.325 353.92 195.336 354.469C224.903 370.212 260.896 373.115 294.246 359.36C354.053 334.698 382.713 265.762 358.277 205.404C351.591 188.903 341.614 174.728 329.435 163.378L322.309 173.578Z" fill="url(#paint1_linear_383_785)"/>
<defs>
<linearGradient id="paint0_linear_383_785" x1="224.908" y1="132" x2="224.908" y2="336.842" gradientUnits="userSpaceOnUse">
<stop stop-color="white"/>
<stop offset="1" stop-color="white" stop-opacity="0.45"/>
</linearGradient>
<linearGradient id="paint1_linear_383_785" x1="276.387" y1="163.378" x2="276.387" y2="368.168" gradientUnits="userSpaceOnUse">
<stop stop-color="white" stop-opacity="0.45"/>
<stop offset="1" stop-color="white"/>
</linearGradient>
</defs>
</svg>
